<svg xmlns="http://www.w3.org/2000/svg" version="1.1" width="500" height="500">
<rect x="0" y="0" width="500" height="500" style="stroke:#000;fill:none" />
<line x1="222" y1="222" x2="278" y2="222" style="stroke:#000" />
<line x1="278" y1="222" x2="278" y2="278" style="stroke:#000" />
<line x1="278" y1="278" x2="222" y2="278" style="stroke:#000" />
<line x1="222" y1="278" x2="222" y2="222" style="stroke:#000" />
<line x1="222" y1="278" x2="278" y2="222" style="stroke:#000" />
<line x1="222" y1="222" x2="278" y2="278" style="stroke:#000" />
<line x1="185" y1="185" x2="204" y2="185" style="stroke:#000" />
<line x1="204" y1="185" x2="204" y2="204" style="stroke:#000" />
<line x1="204" y1="204" x2="185" y2="204" style="stroke:#000" />
<line x1="185" y1="204" x2="185" y2="185" style="stroke:#000" />
<line x1="185" y1="204" x2="204" y2="185" style="stroke:#000" />
<line x1="185" y1="185" x2="204" y2="204" style="stroke:#000" />
<line x1="173" y1="173" x2="179" y2="173" style="stroke:#000" />
<line x1="179" y1="173" x2="179" y2="179" style="stroke:#000" />
<line x1="179" y1="179" x2="173" y2="179" style="stroke:#000" />
<line x1="173" y1="179" x2="173" y2="173" style="stroke:#000" />
<line x1="173" y1="179" x2="179" y2="173" style="stroke:#000" />
<line x1="173" y1="173" x2="179" y2="179" style="stroke:#000" />
<line x1="192" y1="173" x2="198" y2="173" style="stroke:#000" />
<line x1="198" y1="173" x2="198" y2="179" style="stroke:#000" />
<line x1="198" y1="179" x2="192" y2="179" style="stroke:#000" />
<line x1="192" y1="179" x2="192" y2="173" style="stroke:#000" />
<line x1="192" y1="179" x2="198" y2="173" style="stroke:#000" />
<line x1="192" y1="173" x2="198" y2="179" style="stroke:#000" />
<line x1="210" y1="173" x2="216" y2="173" style="stroke:#000" />
<line x1="216" y1="173" x2="216" y2="179" style="stroke:#000" />
<line x1="216" y1="179" x2="210" y2="179" style="stroke:#000" />
<line x1="210" y1="179" x2="210" y2="173" style="stroke:#000" />
<line x1="210" y1="179" x2="216" y2="173" style="stroke:#000" />
<line x1="210" y1="173" x2="216" y2="179" style="stroke:#000" />
<line x1="173" y1="192" x2="179" y2="192" style="stroke:#000" />
<line x1="179" y1="192" x2="179" y2="198" style="stroke:#000" />
<line x1="179" y1="198" x2="173" y2="198" style="stroke:#000" />
<line x1="173" y1="198" x2="173" y2="192" style="stroke:#000" />
<line x1="173" y1="198" x2="179" y2="192" style="stroke:#000" />
<line x1="173" y1="192" x2="179" y2="198" style="stroke:#000" />
<line x1="210" y1="192" x2="216" y2="192" style="stroke:#000" />
<line x1="216" y1="192" x2="216" y2="198" style="stroke:#000" />
<line x1="216" y1="198" x2="210" y2="198" style="stroke:#000" />
<line x1="210" y1="198" x2="210" y2="192" style="stroke:#000" />
<line x1="210" y1="198" x2="216" y2="192" style="stroke:#000" />
<line x1="210" y1="192" x2="216" y2="198" style="stroke:#000" />
<line x1="173" y1="210" x2="179" y2="210" style="stroke:#000" />
<line x1="179" y1="210" x2="179" y2="216" style="stroke:#000" />
<line x1="179" y1="216" x2="173" y2="216" style="stroke:#000" />
<line x1="173" y1="216" x2="173" y2="210" style="stroke:#000" />
<line x1="173" y1="216" x2="179" y2="210" style="stroke:#000" />
<line x1="173" y1="210" x2="179" y2="216" style="stroke:#000" />
<line x1="192" y1="210" x2="198" y2="210" style="stroke:#000" />
<line x1="198" y1="210" x2="198" y2="216" style="stroke:#000" />
<line x1="198" y1="216" x2="192" y2="216" style="stroke:#000" />
<line x1="192" y1="216" x2="192" y2="210" style="stroke:#000" />
<line x1="192" y1="216" x2="198" y2="210" style="stroke:#000" />
<line x1="192" y1="210" x2="198" y2="216" style="stroke:#000" />
<line x1="210" y1="210" x2="216" y2="210" style="stroke:#000" />
<line x1="216" y1="210" x2="216" y2="216" style="stroke:#000" />
<line x1="216" y1="216" x2="210" y2="216" style="stroke:#000" />
<line x1="210" y1="216" x2="210" y2="210" style="stroke:#000" />
<line x1="210" y1="216" x2="216" y2="210" style="stroke:#000" />
<line x1="210" y1="210" x2="216" y2="216" style="stroke:#000" />
<line x1="241" y1="185" x2="259" y2="185" style="stroke:#000" />
<line x1="259" y1="185" x2="259" y2="204" style="stroke:#000" />
<line x1="259" y1="204" x2="241" y2="204" style="stroke:#000" />
<line x1="241" y1="204" x2="241" y2="185" style="stroke:#000" />
<line x1="241" y1="204" x2="259" y2="185" style="stroke:#000" />
<line x1="241" y1="185" x2="259" y2="204" style="stroke:#000" />
<line x1="228" y1="173" x2="235" y2="173" style="stroke:#000" />
<line x1="235" y1="173" x2="235" y2="179" style="stroke:#000" />
<line x1="235" y1="179" x2="228" y2="179" style="stroke:#000" />
<line x1="228" y1="179" x2="228" y2="173" style="stroke:#000" />
<line x1="228" y1="179" x2="235" y2="173" style="stroke:#000" />
<line x1="228" y1="173" x2="235" y2="179" style="stroke:#000" />
<line x1="247" y1="173" x2="253" y2="173" style="stroke:#000" />
<line x1="253" y1="173" x2="253" y2="179" style="stroke:#000" />
<line x1="253" y1="179" x2="247" y2="179" style="stroke:#000" />
<line x1="247" y1="179" x2="247" y2="173" style="stroke:#000" />
<line x1="247" y1="179" x2="253" y2="173" style="stroke:#000" />
<line x1="247" y1="173" x2="253" y2="179" style="stroke:#000" />
<line x1="265" y1="173" x2="272" y2="173" style="stroke:#000" />
<line x1="272" y1="173" x2="272" y2="179" style="stroke:#000" />
<line x1="272" y1="179" x2="265" y2="179" style="stroke:#000" />
<line x1="265" y1="179" x2="265" y2="173" style="stroke:#000" />
<line x1="265" y1="179" x2="272" y2="173" style="stroke:#000" />
<line x1="265" y1="173" x2="272" y2="179" style="stroke:#000" />
<line x1="228" y1="192" x2="235" y2="192" style="stroke:#000" />
<line x1="235" y1="192" x2="235" y2="198" style="stroke:#000" />
<line x1="235" y1="198" x2="228" y2="198" style="stroke:#000" />
<line x1="228" y1="198" x2="228" y2="192" style="stroke:#000" />
<line x1="228" y1="198" x2="235" y2="192" style="stroke:#000" />
<line x1="228" y1="192" x2="235" y2="198" style="stroke:#000" />
<line x1="265" y1="192" x2="272" y2="192" style="stroke:#000" />
<line x1="272" y1="192" x2="272" y2="198" style="stroke:#000" />
<line x1="272" y1="198" x2="265" y2="198" style="stroke:#000" />
<line x1="265" y1="198" x2="265" y2="192" style="stroke:#000" />
<line x1="265" y1="198" x2="272" y2="192" style="stroke:#000" />
<line x1="265" y1="192" x2="272" y2="198" style="stroke:#000" />
<line x1="228" y1="210" x2="235" y2="210" style="stroke:#000" />
<line x1="235" y1="210" x2="235" y2="216" style="stroke:#000" />
<line x1="235" y1="216" x2="228" y2="216" style="stroke:#000" />
<line x1="228" y1="216" x2="228" y2="210" style="stroke:#000" />
<line x1="228" y1="216" x2="235" y2="210" style="stroke:#000" />
<line x1="228" y1="210" x2="235" y2="216" style="stroke:#000" />
<line x1="247" y1="210" x2="253" y2="210" style="stroke:#000" />
<line x1="253" y1="210" x2="253" y2="216" style="stroke:#000" />
<line x1="253" y1="216" x2="247" y2="216" style="stroke:#000" />
<line x1="247" y1="216" x2="247" y2="210" style="stroke:#000" />
<line x1="247" y1="216" x2="253" y2="210" style="stroke:#000" />
<line x1="247" y1="210" x2="253" y2="216" style="stroke:#000" />
<line x1="265" y1="210" x2="272" y2="210" style="stroke:#000" />
<line x1="272" y1="210" x2="272" y2="216" style="stroke:#000" />
<line x1="272" y1="216" x2="265" y2="216" style="stroke:#000" />
<line x1="265" y1="216" x2="265" y2="210" style="stroke:#000" />
<line x1="265" y1="216" x2="272" y2="210" style="stroke:#000" />
<line x1="265" y1="210" x2="272" y2="216" style="stroke:#000" />
<line x1="296" y1="185" x2="315" y2="185" style="stroke:#000" />
<line x1="315" y1="185" x2="315" y2="204" style="stroke:#000" />
<line x1="315" y1="204" x2="296" y2="204" style="stroke:#000" />
<line x1="296" y1="204" x2="296" y2="185" style="stroke:#000" />
<line x1="296" y1="204" x2="315" y2="185" style="stroke:#000" />
<line x1="296" y1="185" x2="315" y2="204" style="stroke:#000" />
<line x1="284" y1="173" x2="290" y2="173" style="stroke:#000" />
<line x1="290" y1="173" x2="290" y2="179" style="stroke:#000" />
<line x1="290" y1="179" x2="284" y2="179" style="stroke:#000" />
<line x1="284" y1="179" x2="284" y2="173" style="stroke:#000" />
<line x1="284" y1="179" x2="290" y2="173" style="stroke:#000" />
<line x1="284" y1="173" x2="290" y2="179" style="stroke:#000" />
<line x1="302" y1="173" x2="308" y2="173" style="stroke:#000" />
<line x1="308" y1="173" x2="308" y2="179" style="stroke:#000" />
<line x1="308" y1="179" x2="302" y2="179" style="stroke:#000" />
<line x1="302" y1="179" x2="302" y2="173" style="stroke:#000" />
<line x1="302" y1="179" x2="308" y2="173" style="stroke:#000" />
<line x1="302" y1="173" x2="308" y2="179" style="stroke:#000" />
<line x1="321" y1="173" x2="327" y2="173" style="stroke:#000" />
<line x1="327" y1="173" x2="327" y2="179" style="stroke:#000" />
<line x1="327" y1="179" x2="321" y2="179" style="stroke:#000" />
<line x1="321" y1="179" x2="321" y2="173" style="stroke:#000" />
<line x1="321" y1="179" x2="327" y2="173" style="stroke:#000" />
<line x1="321" y1="173" x2="327" y2="179" style="stroke:#000" />
<line x1="284" y1="192" x2="290" y2="192" style="stroke:#000" />
<line x1="290" y1="192" x2="290" y2="198" style="stroke:#000" />
<line x1="290" y1="198" x2="284" y2="198" style="stroke:#000" />
<line x1="284" y1="198" x2="284" y2="192" style="stroke:#000" />
<line x1="284" y1="198" x2="290" y2="192" style="stroke:#000" />
<line x1="284" y1="192" x2="290" y2="198" style="stroke:#000" />
<line x1="321" y1="192" x2="327" y2="192" style="stroke:#000" />
<line x1="327" y1="192" x2="327" y2="198" style="stroke:#000" />
<line x1="327" y1="198" x2="321" y2="198" style="stroke:#000" />
<line x1="321" y1="198" x2="321" y2="192" style="stroke:#000" />
<line x1="321" y1="198" x2="327" y2="192" style="stroke:#000" />
<line x1="321" y1="192" x2="327" y2="198" style="stroke:#000" />
<line x1="284" y1="210" x2="290" y2="210" style="stroke:#000" />
<line x1="290" y1="210" x2="290" y2="216" style="stroke:#000" />
<line x1="290" y1="216" x2="284" y2="216" style="stroke:#000" />
<line x1="284" y1="216" x2="284" y2="210" style="stroke:#000" />
<line x1="284" y1="216" x2="290" y2="210" style="stroke:#000" />
<line x1="284" y1="210" x2="290" y2="216" style="stroke:#000" />
<line x1="302" y1="210" x2="308" y2="210" style="stroke:#000" />
<line x1="308" y1="210" x2="308" y2="216" style="stroke:#000" />
<line x1="308" y1="216" x2="302" y2="216" style="stroke:#000" />
<line x1="302" y1="216" x2="302" y2="210" style="stroke:#000" />
<line x1="302" y1="216" x2="308" y2="210" style="stroke:#000" />
<line x1="302" y1="210" x2="308" y2="216" style="stroke:#000" />
<line x1="321" y1="210" x2="327" y2="210" style="stroke:#000" />
<line x1="327" y1="210" x2="327" y2="216" style="stroke:#000" />
<line x1="327" y1="216" x2="321" y2="216" style="stroke:#000" />
<line x1="321" y1="216" x2="321" y2="210" style="stroke:#000" />
<line x1="321" y1="216" x2="327" y2="210" style="stroke:#000" />
<line x1="321" y1="210" x2="327" y2="216" style="stroke:#000" />
<line x1="185" y1="241" x2="204" y2="241" style="stroke:#000" />
<line x1="204" y1="241" x2="204" y2="259" style="stroke:#000" />
<line x1="204" y1="259" x2="185" y2="259" style="stroke:#000" />
<line x1="185" y1="259" x2="185" y2="241" style="stroke:#000" />
<line x1="185" y1="259" x2="204" y2="241" style="stroke:#000" />
<line x1="185" y1="241" x2="204" y2="259" style="stroke:#000" />
<line x1="173" y1="228" x2="179" y2="228" style="stroke:#000" />
<line x1="179" y1="228" x2="179" y2="235" style="stroke:#000" />
<line x1="179" y1="235" x2="173" y2="235" style="stroke:#000" />
<line x1="173" y1="235" x2="173" y2="228" style="stroke:#000" />
<line x1="173" y1="235" x2="179" y2="228" style="stroke:#000" />
<line x1="173" y1="228" x2="179" y2="235" style="stroke:#000" />
<line x1="192" y1="228" x2="198" y2="228" style="stroke:#000" />
<line x1="198" y1="228" x2="198" y2="235" style="stroke:#000" />
<line x1="198" y1="235" x2="192" y2="235" style="stroke:#000" />
<line x1="192" y1="235" x2="192" y2="228" style="stroke:#000" />
<line x1="192" y1="235" x2="198" y2="228" style="stroke:#000" />
<line x1="192" y1="228" x2="198" y2="235" style="stroke:#000" />
<line x1="210" y1="228" x2="216" y2="228" style="stroke:#000" />
<line x1="216" y1="228" x2="216" y2="235" style="stroke:#000" />
<line x1="216" y1="235" x2="210" y2="235" style="stroke:#000" />
<line x1="210" y1="235" x2="210" y2="228" style="stroke:#000" />
<line x1="210" y1="235" x2="216" y2="228" style="stroke:#000" />
<line x1="210" y1="228" x2="216" y2="235" style="stroke:#000" />
<line x1="173" y1="247" x2="179" y2="247" style="stroke:#000" />
<line x1="179" y1="247" x2="179" y2="253" style="stroke:#000" />
<line x1="179" y1="253" x2="173" y2="253" style="stroke:#000" />
<line x1="173" y1="253" x2="173" y2="247" style="stroke:#000" />
<line x1="173" y1="253" x2="179" y2="247" style="stroke:#000" />
<line x1="173" y1="247" x2="179" y2="253" style="stroke:#000" />
<line x1="210" y1="247" x2="216" y2="247" style="stroke:#000" />
<line x1="216" y1="247" x2="216" y2="253" style="stroke:#000" />
<line x1="216" y1="253" x2="210" y2="253" style="stroke:#000" />
<line x1="210" y1="253" x2="210" y2="247" style="stroke:#000" />
<line x1="210" y1="253" x2="216" y2="247" style="stroke:#000" />
<line x1="210" y1="247" x2="216" y2="253" style="stroke:#000" />
<line x1="173" y1="265" x2="179" y2="265" style="stroke:#000" />
<line x1="179" y1="265" x2="179" y2="272" style="stroke:#000" />
<line x1="179" y1="272" x2="173" y2="272" style="stroke:#000" />
<line x1="173" y1="272" x2="173" y2="265" style="stroke:#000" />
<line x1="173" y1="272" x2="179" y2="265" style="stroke:#000" />
<line x1="173" y1="265" x2="179" y2="272" style="stroke:#000" />
<line x1="192" y1="265" x2="198" y2="265" style="stroke:#000" />
<line x1="198" y1="265" x2="198" y2="272" style="stroke:#000" />
<line x1="198" y1="272" x2="192" y2="272" style="stroke:#000" />
<line x1="192" y1="272" x2="192" y2="265" style="stroke:#000" />
<line x1="192" y1="272" x2="198" y2="265" style="stroke:#000" />
<line x1="192" y1="265" x2="198" y2="272" style="stroke:#000" />
<line x1="210" y1="265" x2="216" y2="265" style="stroke:#000" />
<line x1="216" y1="265" x2="216" y2="272" style="stroke:#000" />
<line x1="216" y1="272" x2="210" y2="272" style="stroke:#000" />
<line x1="210" y1="272" x2="210" y2="265" style="stroke:#000" />
<line x1="210" y1="272" x2="216" y2="265" style="stroke:#000" />
<line x1="210" y1="265" x2="216" y2="272" style="stroke:#000" />
<line x1="296" y1="241" x2="315" y2="241" style="stroke:#000" />
<line x1="315" y1="241" x2="315" y2="259" style="stroke:#000" />
<line x1="315" y1="259" x2="296" y2="259" style="stroke:#000" />
<line x1="296" y1="259" x2="296" y2="241" style="stroke:#000" />
<line x1="296" y1="259" x2="315" y2="241" style="stroke:#000" />
<line x1="296" y1="241" x2="315" y2="259" style="stroke:#000" />
<line x1="284" y1="228" x2="290" y2="228" style="stroke:#000" />
<line x1="290" y1="228" x2="290" y2="235" style="stroke:#000" />
<line x1="290" y1="235" x2="284" y2="235" style="stroke:#000" />
<line x1="284" y1="235" x2="284" y2="228" style="stroke:#000" />
<line x1="284" y1="235" x2="290" y2="228" style="stroke:#000" />
<line x1="284" y1="228" x2="290" y2="235" style="stroke:#000" />
<line x1="302" y1="228" x2="308" y2="228" style="stroke:#000" />
<line x1="308" y1="228" x2="308" y2="235" style="stroke:#000" />
<line x1="308" y1="235" x2="302" y2="235" style="stroke:#000" />
<line x1="302" y1="235" x2="302" y2="228" style="stroke:#000" />
<line x1="302" y1="235" x2="308" y2="228" style="stroke:#000" />
<line x1="302" y1="228" x2="308" y2="235" style="stroke:#000" />
<line x1="321" y1="228" x2="327" y2="228" style="stroke:#000" />
<line x1="327" y1="228" x2="327" y2="235" style="stroke:#000" />
<line x1="327" y1="235" x2="321" y2="235" style="stroke:#000" />
<line x1="321" y1="235" x2="321" y2="228" style="stroke:#000" />
<line x1="321" y1="235" x2="327" y2="228" style="stroke:#000" />
<line x1="321" y1="228" x2="327" y2="235" style="stroke:#000" />
<line x1="284" y1="247" x2="290" y2="247" style="stroke:#000" />
<line x1="290" y1="247" x2="290" y2="253" style="stroke:#000" />
<line x1="290" y1="253" x2="284" y2="253" style="stroke:#000" />
<line x1="284" y1="253" x2="284" y2="247" style="stroke:#000" />
<line x1="284" y1="253" x2="290" y2="247" style="stroke:#000" />
<line x1="284" y1="247" x2="290" y2="253" style="stroke:#000" />
<line x1="321" y1="247" x2="327" y2="247" style="stroke:#000" />
<line x1="327" y1="247" x2="327" y2="253" style="stroke:#000" />
<line x1="327" y1="253" x2="321" y2="253" style="stroke:#000" />
<line x1="321" y1="253" x2="321" y2="247" style="stroke:#000" />
<line x1="321" y1="253" x2="327" y2="247" style="stroke:#000" />
<line x1="321" y1="247" x2="327" y2="253" style="stroke:#000" />
<line x1="284" y1="265" x2="290" y2="265" style="stroke:#000" />
<line x1="290" y1="265" x2="290" y2="272" style="stroke:#000" />
<line x1="290" y1="272" x2="284" y2="272" style="stroke:#000" />
<line x1="284" y1="272" x2="284" y2="265" style="stroke:#000" />
<line x1="284" y1="272" x2="290" y2="265" style="stroke:#000" />
<line x1="284" y1="265" x2="290" y2="272" style="stroke:#000" />
<line x1="302" y1="265" x2="308" y2="265" style="stroke:#000" />
<line x1="308" y1="265" x2="308" y2="272" style="stroke:#000" />
<line x1="308" y1="272" x2="302" y2="272" style="stroke:#000" />
<line x1="302" y1="272" x2="302" y2="265" style="stroke:#000" />
<line x1="302" y1="272" x2="308" y2="265" style="stroke:#000" />
<line x1="302" y1="265" x2="308" y2="272" style="stroke:#000" />
<line x1="321" y1="265" x2="327" y2="265" style="stroke:#000" />
<line x1="327" y1="265" x2="327" y2="272" style="stroke:#000" />
<line x1="327" y1="272" x2="321" y2="272" style="stroke:#000" />
<line x1="321" y1="272" x2="321" y2="265" style="stroke:#000" />
<line x1="321" y1="272" x2="327" y2="265" style="stroke:#000" />
<line x1="321" y1="265" x2="327" y2="272" style="stroke:#000" />
<line x1="185" y1="296" x2="204" y2="296" style="stroke:#000" />
<line x1="204" y1="296" x2="204" y2="315" style="stroke:#000" />
<line x1="204" y1="315" x2="185" y2="315" style="stroke:#000" />
<line x1="185" y1="315" x2="185" y2="296" style="stroke:#000" />
<line x1="185" y1="315" x2="204" y2="296" style="stroke:#000" />
<line x1="185" y1="296" x2="204" y2="315" style="stroke:#000" />
<line x1="173" y1="284" x2="179" y2="284" style="stroke:#000" />
<line x1="179" y1="284" x2="179" y2="290" style="stroke:#000" />
<line x1="179" y1="290" x2="173" y2="290" style="stroke:#000" />
<line x1="173" y1="290" x2="173" y2="284" style="stroke:#000" />
<line x1="173" y1="290" x2="179" y2="284" style="stroke:#000" />
<line x1="173" y1="284" x2="179" y2="290" style="stroke:#000" />
<line x1="192" y1="284" x2="198" y2="284" style="stroke:#000" />
<line x1="198" y1="284" x2="198" y2="290" style="stroke:#000" />
<line x1="198" y1="290" x2="192" y2="290" style="stroke:#000" />
<line x1="192" y1="290" x2="192" y2="284" style="stroke:#000" />
<line x1="192" y1="290" x2="198" y2="284" style="stroke:#000" />
<line x1="192" y1="284" x2="198" y2="290" style="stroke:#000" />
<line x1="210" y1="284" x2="216" y2="284" style="stroke:#000" />
<line x1="216" y1="284" x2="216" y2="290" style="stroke:#000" />
<line x1="216" y1="290" x2="210" y2="290" style="stroke:#000" />
<line x1="210" y1="290" x2="210" y2="284" style="stroke:#000" />
<line x1="210" y1="290" x2="216" y2="284" style="stroke:#000" />
<line x1="210" y1="284" x2="216" y2="290" style="stroke:#000" />
<line x1="173" y1="302" x2="179" y2="302" style="stroke:#000" />
<line x1="179" y1="302" x2="179" y2="308" style="stroke:#000" />
<line x1="179" y1="308" x2="173" y2="308" style="stroke:#000" />
<line x1="173" y1="308" x2="173" y2="302" style="stroke:#000" />
<line x1="173" y1="308" x2="179" y2="302" style="stroke:#000" />
<line x1="173" y1="302" x2="179" y2="308" style="stroke:#000" />
<line x1="210" y1="302" x2="216" y2="302" style="stroke:#000" />
<line x1="216" y1="302" x2="216" y2="308" style="stroke:#000" />
<line x1="216" y1="308" x2="210" y2="308" style="stroke:#000" />
<line x1="210" y1="308" x2="210" y2="302" style="stroke:#000" />
<line x1="210" y1="308" x2="216" y2="302" style="stroke:#000" />
<line x1="210" y1="302" x2="216" y2="308" style="stroke:#000" />
<line x1="173" y1="321" x2="179" y2="321" style="stroke:#000" />
<line x1="179" y1="321" x2="179" y2="327" style="stroke:#000" />
<line x1="179" y1="327" x2="173" y2="327" style="stroke:#000" />
<line x1="173" y1="327" x2="173" y2="321" style="stroke:#000" />
<line x1="173" y1="327" x2="179" y2="321" style="stroke:#000" />
<line x1="173" y1="321" x2="179" y2="327" style="stroke:#000" />
<line x1="192" y1="321" x2="198" y2="321" style="stroke:#000" />
<line x1="198" y1="321" x2="198" y2="327" style="stroke:#000" />
<line x1="198" y1="327" x2="192" y2="327" style="stroke:#000" />
<line x1="192" y1="327" x2="192" y2="321" style="stroke:#000" />
<line x1="192" y1="327" x2="198" y2="321" style="stroke:#000" />
<line x1="192" y1="321" x2="198" y2="327" style="stroke:#000" />
<line x1="210" y1="321" x2="216" y2="321" style="stroke:#000" />
<line x1="216" y1="321" x2="216" y2="327" style="stroke:#000" />
<line x1="216" y1="327" x2="210" y2="327" style="stroke:#000" />
<line x1="210" y1="327" x2="210" y2="321" style="stroke:#000" />
<line x1="210" y1="327" x2="216" y2="321" style="stroke:#000" />
<line x1="210" y1="321" x2="216" y2="327" style="stroke:#000" />
<line x1="241" y1="296" x2="259" y2="296" style="stroke:#000" />
<line x1="259" y1="296" x2="259" y2="315" style="stroke:#000" />
<line x1="259" y1="315" x2="241" y2="315" style="stroke:#000" />
<line x1="241" y1="315" x2="241" y2="296" style="stroke:#000" />
<line x1="241" y1="315" x2="259" y2="296" style="stroke:#000" />
<line x1="241" y1="296" x2="259" y2="315" style="stroke:#000" />
<line x1="228" y1="284" x2="235" y2="284" style="stroke:#000" />
<line x1="235" y1="284" x2="235" y2="290" style="stroke:#000" />
<line x1="235" y1="290" x2="228" y2="290" style="stroke:#000" />
<line x1="228" y1="290" x2="228" y2="284" style="stroke:#000" />
<line x1="228" y1="290" x2="235" y2="284" style="stroke:#000" />
<line x1="228" y1="284" x2="235" y2="290" style="stroke:#000" />
<line x1="247" y1="284" x2="253" y2="284" style="stroke:#000" />
<line x1="253" y1="284" x2="253" y2="290" style="stroke:#000" />
<line x1="253" y1="290" x2="247" y2="290" style="stroke:#000" />
<line x1="247" y1="290" x2="247" y2="284" style="stroke:#000" />
<line x1="247" y1="290" x2="253" y2="284" style="stroke:#000" />
<line x1="247" y1="284" x2="253" y2="290" style="stroke:#000" />
<line x1="265" y1="284" x2="272" y2="284" style="stroke:#000" />
<line x1="272" y1="284" x2="272" y2="290" style="stroke:#000" />
<line x1="272" y1="290" x2="265" y2="290" style="stroke:#000" />
<line x1="265" y1="290" x2="265" y2="284" style="stroke:#000" />
<line x1="265" y1="290" x2="272" y2="284" style="stroke:#000" />
<line x1="265" y1="284" x2="272" y2="290" style="stroke:#000" />
<line x1="228" y1="302" x2="235" y2="302" style="stroke:#000" />
<line x1="235" y1="302" x2="235" y2="308" style="stroke:#000" />
<line x1="235" y1="308" x2="228" y2="308" style="stroke:#000" />
<line x1="228" y1="308" x2="228" y2="302" style="stroke:#000" />
<line x1="228" y1="308" x2="235" y2="302" style="stroke:#000" />
<line x1="228" y1="302" x2="235" y2="308" style="stroke:#000" />
<line x1="265" y1="302" x2="272" y2="302" style="stroke:#000" />
<line x1="272" y1="302" x2="272" y2="308" style="stroke:#000" />
<line x1="272" y1="308" x2="265" y2="308" style="stroke:#000" />
<line x1="265" y1="308" x2="265" y2="302" style="stroke:#000" />
<line x1="265" y1="308" x2="272" y2="302" style="stroke:#000" />
<line x1="265" y1="302" x2="272" y2="308" style="stroke:#000" />
<line x1="228" y1="321" x2="235" y2="321" style="stroke:#000" />
<line x1="235" y1="321" x2="235" y2="327" style="stroke:#000" />
<line x1="235" y1="327" x2="228" y2="327" style="stroke:#000" />
<line x1="228" y1="327" x2="228" y2="321" style="stroke:#000" />
<line x1="228" y1="327" x2="235" y2="321" style="stroke:#000" />
<line x1="228" y1="321" x2="235" y2="327" style="stroke:#000" />
<line x1="247" y1="321" x2="253" y2="321" style="stroke:#000" />
<line x1="253" y1="321" x2="253" y2="327" style="stroke:#000" />
<line x1="253" y1="327" x2="247" y2="327" style="stroke:#000" />
<line x1="247" y1="327" x2="247" y2="321" style="stroke:#000" />
<line x1="247" y1="327" x2="253" y2="321" style="stroke:#000" />
<line x1="247" y1="321" x2="253" y2="327" style="stroke:#000" />
<line x1="265" y1="321" x2="272" y2="321" style="stroke:#000" />
<line x1="272" y1="321" x2="272" y2="327" style="stroke:#000" />
<line x1="272" y1="327" x2="265" y2="327" style="stroke:#000" />
<line x1="265" y1="327" x2="265" y2="321" style="stroke:#000" />
<line x1="265" y1="327" x2="272" y2="321" style="stroke:#000" />
<line x1="265" y1="321" x2="272" y2="327" style="stroke:#000" />
<line x1="296" y1="296" x2="315" y2="296" style="stroke:#000" />
<line x1="315" y1="296" x2="315" y2="315" style="stroke:#000" />
<line x1="315" y1="315" x2="296" y2="315" style="stroke:#000" />
<line x1="296" y1="315" x2="296" y2="296" style="stroke:#000" />
<line x1="296" y1="315" x2="315" y2="296" style="stroke:#000" />
<line x1="296" y1="296" x2="315" y2="315" style="stroke:#000" />
<line x1="284" y1="284" x2="290" y2="284" style="stroke:#000" />
<line x1="290" y1="284" x2="290" y2="290" style="stroke:#000" />
<line x1="290" y1="290" x2="284" y2="290" style="stroke:#000" />
<line x1="284" y1="290" x2="284" y2="284" style="stroke:#000" />
<line x1="284" y1="290" x2="290" y2="284" style="stroke:#000" />
<line x1="284" y1="284" x2="290" y2="290" style="stroke:#000" />
<line x1="302" y1="284" x2="308" y2="284" style="stroke:#000" />
<line x1="308" y1="284" x2="308" y2="290" style="stroke:#000" />
<line x1="308" y1="290" x2="302" y2="290" style="stroke:#000" />
<line x1="302" y1="290" x2="302" y2="284" style="stroke:#000" />
<line x1="302" y1="290" x2="308" y2="284" style="stroke:#000" />
<line x1="302" y1="284" x2="308" y2="290" style="stroke:#000" />
<line x1="321" y1="284" x2="327" y2="284" style="stroke:#000" />
<line x1="327" y1="284" x2="327" y2="290" style="stroke:#000" />
<line x1="327" y1="290" x2="321" y2="290" style="stroke:#000" />
<line x1="321" y1="290" x2="321" y2="284" style="stroke:#000" />
<line x1="321" y1="290" x2="327" y2="284" style="stroke:#000" />
<line x1="321" y1="284" x2="327" y2="290" style="stroke:#000" />
<line x1="284" y1="302" x2="290" y2="302" style="stroke:#000" />
<line x1="290" y1="302" x2="290" y2="308" style="stroke:#000" />
<line x1="290" y1="308" x2="284" y2="308" style="stroke:#000" />
<line x1="284" y1="308" x2="284" y2="302" style="stroke:#000" />
<line x1="284" y1="308" x2="290" y2="302" style="stroke:#000" />
<line x1="284" y1="302" x2="290" y2="308" style="stroke:#000" />
<line x1="321" y1="302" x2="327" y2="302" style="stroke:#000" />
<line x1="327" y1="302" x2="327" y2="308" style="stroke:#000" />
<line x1="327" y1="308" x2="321" y2="308" style="stroke:#000" />
<line x1="321" y1="308" x2="321" y2="302" style="stroke:#000" />
<line x1="321" y1="308" x2="327" y2="302" style="stroke:#000" />
<line x1="321" y1="302" x2="327" y2="308" style="stroke:#000" />
<line x1="284" y1="321" x2="290" y2="321" style="stroke:#000" />
<line x1="290" y1="321" x2="290" y2="327" style="stroke:#000" />
<line x1="290" y1="327" x2="284" y2="327" style="stroke:#000" />
<line x1="284" y1="327" x2="284" y2="321" style="stroke:#000" />
<line x1="284" y1="327" x2="290" y2="321" style="stroke:#000" />
<line x1="284" y1="321" x2="290" y2="327" style="stroke:#000" />
<line x1="302" y1="321" x2="308" y2="321" style="stroke:#000" />
<line x1="308" y1="321" x2="308" y2="327" style="stroke:#000" />
<line x1="308" y1="327" x2="302" y2="327" style="stroke:#000" />
<line x1="302" y1="327" x2="302" y2="321" style="stroke:#000" />
<line x1="302" y1="327" x2="308" y2="321" style="stroke:#000" />
<line x1="302" y1="321" x2="308" y2="327" style="stroke:#000" />
<line x1="321" y1="321" x2="327" y2="321" style="stroke:#000" />
<line x1="327" y1="321" x2="327" y2="327" style="stroke:#000" />
<line x1="327" y1="327" x2="321" y2="327" style="stroke:#000" />
<line x1="321" y1="327" x2="321" y2="321" style="stroke:#000" />
<line x1="321" y1="327" x2="327" y2="321" style="stroke:#000" />
<line x1="321" y1="321" x2="327" y2="327" style="stroke:#000" />
</svg>
